<svg width="28" height="28" viewBox="0 0 28 28" fill="none" xmlns="http://www.w3.org/2000/svg">
<g id="cib:linkedin-in" clip-path="url(#clip0_118_603)">
<path id="Vector" d="M7.2345 24.5005H2.15513V8.14324H7.2345V24.5005ZM4.69175 5.91199C3.06775 5.91199 1.75 4.56624 1.75 2.94224C1.75 2.16204 2.05993 1.41379 2.61162 0.862107C3.1633 0.310422 3.91155 0.000488281 4.69175 0.000488281C5.47195 0.000488281 6.2202 0.310422 6.77188 0.862107C7.32357 1.41379 7.6335 2.16204 7.6335 2.94224C7.6335 4.56624 6.31575 5.91199 4.69175 5.91199ZM26.2448 24.5005H21.1768V16.538C21.1768 14.6401 21.1383 12.2067 18.536 12.2067C15.8953 12.2067 15.4901 14.2682 15.4901 16.4015V24.5005H10.416V8.14324H15.2871V10.3745H15.358C16.0361 9.08911 17.6925 7.73286 20.1635 7.73286C25.3041 7.73286 26.2491 11.1182 26.2491 15.5151V24.5005H26.2448Z" fill="white"/>
</g>
<defs>
<clipPath id="clip0_118_603">
<rect width="28" height="28" fill="white" transform="translate(0 0.000488281)"/>
</clipPath>
</defs>
</svg>
