<svg width="88" height="28" viewBox="0 0 88 28" fill="none" xmlns="http://www.w3.org/2000/svg">
<path opacity="0.5" d="M2.67412 25L2.67412 4.65071L16.2863 4.65071V7.79836L6.12549 7.79836L6.12549 13.1273H15.0714V16.2749L6.12549 16.2749L6.12549 25H2.67412ZM18.7715 25L18.7715 4.65071L30.6166 4.65071L33.6815 7.71553V14.4526L30.8928 17.2413L34.3441 25L30.4234 25L27.2205 17.5174H22.2229V25H18.7715ZM22.2229 14.4802L29.0152 14.4802L30.2301 13.2653L30.2301 8.9028L29.0152 7.68792L22.2229 7.68792L22.2229 14.4802ZM37.9428 25L37.9428 4.65071H41.3942V21.8523H51.2513L51.2513 25H37.9428Z" fill="#8B8B8B"/>
<path d="M65.8048 24.5908H68.9139V21.5649H65.8048V24.5908ZM62.6956 21.5649H65.8048V18.5389H62.6956V21.5649ZM59.5865 18.5389H62.6956V15.513H59.5865V18.5389ZM56.4774 15.513H59.5865V12.487H56.4774V15.513ZM59.5865 12.487H62.6956V9.46106H59.5865V12.487ZM62.6956 9.46106H65.8048V6.43511H62.6956V9.46106ZM65.8048 6.43511H68.9139V3.40915H65.8048V6.43511ZM78.2412 24.5908H75.1321V21.5649H78.2412V24.5908ZM81.3503 21.5649H78.2412V18.5389H81.3503V21.5649ZM84.4594 18.5389H81.3503V15.513H84.4594V18.5389ZM87.5685 15.513H84.4594V12.487H87.5685V15.513ZM84.4594 12.487H81.3503V9.46106H84.4594V12.487ZM81.3503 9.46106H78.2412V6.43511H81.3503V9.46106ZM78.2412 6.43511H75.1321V3.40915H78.2412V6.43511Z" fill="#3EE546"/>
</svg>
