<svg width="28" height="28" viewBox="0 0 28 28" fill="none" xmlns="http://www.w3.org/2000/svg">
<g id="ri:instagram-fill">
<path id="Vector" d="M15.1994 2.33469C16.0508 2.33142 16.9022 2.33998 17.7533 2.36035L17.9796 2.36852C18.2409 2.37785 18.4988 2.38952 18.8103 2.40352C20.0516 2.46185 20.8986 2.65785 21.6418 2.94602C22.4118 3.24235 23.0604 3.64369 23.7091 4.29235C24.3022 4.87523 24.7612 5.58029 25.0543 6.35852C25.3424 7.10169 25.5384 7.94985 25.5968 9.19119C25.6108 9.50152 25.6224 9.76052 25.6318 10.0219L25.6388 10.2482C25.6595 11.0989 25.6684 11.9499 25.6656 12.8009L25.6668 13.6712V15.1995C25.6696 16.0509 25.6607 16.9022 25.6399 17.7534L25.6329 17.9797C25.6236 18.241 25.6119 18.4989 25.5979 18.8104C25.5396 20.0517 25.3413 20.8987 25.0543 21.6419C24.7622 22.4209 24.303 23.1266 23.7091 23.7092C23.1257 24.3022 22.4203 24.7612 21.6418 25.0544C20.8986 25.3425 20.0516 25.5385 18.8103 25.5969C18.4988 25.6109 18.2409 25.6225 17.9796 25.6319L17.7533 25.6389C16.9022 25.6596 16.0508 25.6685 15.1994 25.6657L14.3291 25.6669H12.8019C11.9506 25.6697 11.0992 25.6608 10.2481 25.64L10.0218 25.633C9.74481 25.623 9.46792 25.6113 9.1911 25.598C7.94977 25.5397 7.10277 25.3414 6.35844 25.0544C5.5799 24.7619 4.87471 24.3028 4.29227 23.7092C3.69849 23.1262 3.23903 22.4207 2.94594 21.6419C2.65777 20.8987 2.46177 20.0517 2.40344 18.8104C2.39044 18.5335 2.37878 18.2566 2.36844 17.9797L2.3626 17.7534C2.34109 16.9023 2.33137 16.0509 2.33344 15.1995V12.8009C2.33018 11.9499 2.33874 11.0989 2.3591 10.2482L2.36727 10.0219C2.3766 9.76052 2.38827 9.50152 2.40227 9.19119C2.4606 7.94869 2.6566 7.10285 2.94477 6.35852C3.23804 5.57991 3.69839 4.87504 4.29344 4.29352C4.87548 3.6994 5.58022 3.23952 6.35844 2.94602C7.10277 2.65785 7.9486 2.46185 9.1911 2.40352L10.0218 2.36852L10.2481 2.36269C11.0988 2.34119 11.9498 2.33147 12.8008 2.33352L15.1994 2.33469ZM14.0001 8.16802C13.2272 8.15709 12.4598 8.29988 11.7426 8.5881C11.0253 8.87632 10.3725 9.30421 9.82209 9.84692C9.27165 10.3896 8.83457 11.0363 8.53624 11.7494C8.23791 12.4625 8.08428 13.2278 8.08428 14.0008C8.08428 14.7738 8.23791 15.539 8.53624 16.2521C8.83457 16.9652 9.27165 17.6119 9.82209 18.1546C10.3725 18.6973 11.0253 19.1252 11.7426 19.4134C12.4598 19.7017 13.2272 19.8445 14.0001 19.8335C15.5472 19.8335 17.0309 19.2189 18.1249 18.125C19.2189 17.031 19.8334 15.5473 19.8334 14.0002C19.8334 12.4531 19.2189 10.9694 18.1249 9.8754C17.0309 8.78144 15.5472 8.16802 14.0001 8.16802ZM14.0001 10.5014C14.465 10.4928 14.927 10.577 15.359 10.7489C15.7911 10.9209 16.1845 11.1773 16.5163 11.503C16.8482 11.8287 17.1118 12.2173 17.2918 12.6461C17.4718 13.0748 17.5645 13.5352 17.5646 14.0002C17.5647 14.4652 17.4721 14.9255 17.2922 15.3544C17.1124 15.7832 16.8489 16.1719 16.5172 16.4977C16.1854 16.8236 15.7921 17.08 15.3601 17.2522C14.9281 17.4243 14.4662 17.5086 14.0013 17.5002C13.073 17.5002 12.1828 17.1314 11.5264 16.4751C10.87 15.8187 10.5013 14.9284 10.5013 14.0002C10.5013 13.0719 10.87 12.1817 11.5264 11.5253C12.1828 10.8689 13.073 10.5002 14.0013 10.5002L14.0001 10.5014ZM20.1251 6.41802C19.7487 6.43308 19.3928 6.5932 19.1318 6.86482C18.8708 7.13644 18.7251 7.49851 18.7251 7.87519C18.7251 8.25186 18.8708 8.61393 19.1318 8.88555C19.3928 9.15718 19.7487 9.31729 20.1251 9.33235C20.5119 9.33235 20.8828 9.17871 21.1563 8.90522C21.4298 8.63173 21.5834 8.26079 21.5834 7.87402C21.5834 7.48725 21.4298 7.11631 21.1563 6.84282C20.8828 6.56933 20.5119 6.41569 20.1251 6.41569V6.41802Z" fill="white"/>
</g>
</svg>
