<svg width="33" height="33" viewBox="0 0 33 33" fill="none" xmlns="http://www.w3.org/2000/svg">
<g id="teenyicons:github-solid">
<path id="Vector" d="M20.5878 4.71894C17.8986 4.09405 15.1018 4.09405 12.4126 4.71894C10.8594 3.76634 9.67361 3.32854 8.81121 3.14374C8.44313 3.06067 8.0665 3.02153 7.68921 3.02714C7.51753 3.03179 7.34666 3.05241 7.17881 3.08874L7.15681 3.09314L7.14801 3.09754H7.14141L7.44281 4.15574L7.14141 3.09974C6.98685 3.14342 6.84373 3.22041 6.72211 3.32531C6.60048 3.43021 6.50331 3.56047 6.43741 3.70694C5.78835 5.1605 5.66469 6.79446 6.08761 8.32914C4.9923 9.65652 4.39542 11.325 4.40021 13.0459C4.40021 16.4625 5.40781 18.7593 7.12601 20.2355C8.32941 21.2695 9.79021 21.8195 11.2554 22.1341C11.0248 22.8113 10.9379 23.5291 11.0002 24.2417V25.5573C10.1048 25.7443 9.48441 25.6849 9.04221 25.5397C8.49001 25.3571 8.06541 24.9897 7.65841 24.4617C7.44565 24.1771 7.24739 23.8819 7.06441 23.5773L6.93901 23.3727C6.78066 23.1094 6.61635 22.8498 6.44621 22.5939C6.02821 21.9757 5.40781 21.2013 4.40461 20.9373L3.33981 20.6579L2.78101 22.7875L3.84581 23.0669C4.02181 23.1109 4.25061 23.2759 4.62681 23.8281C4.77161 24.0461 4.91098 24.2677 5.04481 24.4925L5.19441 24.7345C5.40121 25.0689 5.63881 25.4385 5.91381 25.7993C6.47041 26.5253 7.22941 27.2579 8.35581 27.6297C9.12581 27.8849 10.0014 27.9465 11.0002 27.7925V31.8999C11.0002 32.1917 11.1161 32.4715 11.3224 32.6778C11.5287 32.884 11.8085 32.9999 12.1002 32.9999H20.9002C21.1919 32.9999 21.4717 32.884 21.678 32.6778C21.8843 32.4715 22.0002 32.1917 22.0002 31.8999V24.0613C22.0002 23.3683 21.9694 22.7325 21.7736 22.1407C23.2322 21.8327 24.682 21.2827 25.8788 20.2487C27.5948 18.7615 28.6002 16.4427 28.6002 13.0063V13.0041C28.5947 11.2973 27.9976 9.64515 26.9106 8.32914C27.333 6.79514 27.2093 5.16205 26.5608 3.70914C26.4954 3.5625 26.3987 3.43195 26.2774 3.32667C26.1562 3.2214 26.0134 3.14394 25.859 3.09974L25.5576 4.15574C25.859 3.09974 25.8568 3.09974 25.8546 3.09974L25.8502 3.09754L25.8414 3.09314L25.8216 3.08874C25.7673 3.07461 25.7122 3.06359 25.6566 3.05574C25.5415 3.03892 25.4254 3.02937 25.309 3.02714C24.9317 3.02157 24.5551 3.06071 24.187 3.14374C23.3268 3.32854 22.141 3.76634 20.5878 4.71894Z" fill="white"/>
</g>
</svg>
